<?xml version="1.0" encoding="utf-8"?>
<!-- Generator: Adobe Illustrator 16.0.0, SVG Export Plug-In . SVG Version: 6.00 Build 0)  -->
<!DOCTYPE svg PUBLIC "-//W3C//DTD SVG 1.1//EN" "http://www.w3.org/Graphics/SVG/1.1/DTD/svg11.dtd">
<svg version="1.1" id="레이어_1" xmlns="http://www.w3.org/2000/svg" xmlns:xlink="http://www.w3.org/1999/xlink" x="0px"
	 y="0px" width="1133.86px" height="1133.86px" viewBox="0 0 1133.86 1133.86" enable-background="new 0 0 1133.86 1133.86"
	 xml:space="preserve">
<g>
	<path fill="#191A15" d="M433.118,404.082c20.204-1.774,41.309-4.917,63.046-9.893c-1.711-5.792-4.1-10.176-7.442-11.168
		c-13.379-3.97-64.345-29.453-158.632-13.526c0,0-68.804,12.104-55.425,20.386v2.201
		C310.743,400.878,367.042,409.886,433.118,404.082"/>
	<path fill="#191A15" d="M387.803,739.283c-26.039-6.533-44.189-15.561-53.36-20.827c108.19-40.918,98.216-309.25,98.216-309.25
		v-3.268l0.459-1.856c20.204-1.774,41.309-4.917,63.046-9.893c5.14,17.387,4.185,47.457,4.662,36.465
		c0.637-14.653,5.097,143.342,5.097,146.527c0,2.39-5.734,9.079,1.612,12.274"/>
	<path fill="#191A15" d="M432.659,409.206v-3.268l0.459-1.856c-66.076,5.804-122.375-3.204-158.453-12v0.347
		c0,0-56.7,211.509,52.877,321.723c0,0,2.356,1.693,6.901,4.304C442.633,677.538,432.659,409.206,432.659,409.206z"/>
</g>
<path fill="#4B241D" d="M334.443,716.063c0,0-115.841-71.99-59.778-323.634c0,0,133.148,22.559,157.994,13.509
	C432.659,405.938,447.098,667.646,334.443,716.063z"/>
<path fill="#7B4E37" d="M301.833,397.855c0,0-46.705,222.426,19.55,253.854c66.256,31.428,33.128-245.771,33.128-245.771
	l1.699-8.083l-50.011-4.79L301.833,397.855z"/>
<path fill="#D6B7A4" d="M331.578,405.938c0,0,18.686,228.511-8.495,211.021c-27.182-17.489-15.545-218.097-15.545-218.097
	l5.352-5.796l20.705,4.79L331.578,405.938z"/>
<g>
	<path fill="#AE8F7A" d="M433.118,404.082c20.204-1.774,41.309-4.917,63.046-9.893c-1.711-5.792-4.1-10.176-7.442-11.168
		c-13.379-3.97-64.345-29.453-158.632-13.526c0,0-68.804,12.104-55.425,20.386v2.201
		C310.743,400.878,367.042,409.886,433.118,404.082"/>
	<path fill="none" d="M496.164,394.189c-21.737,4.977-42.842,8.119-63.046,9.893l-0.459,1.856v3.268"/>
	<path fill="none" d="M432.659,409.206v-3.268l0.459-1.856c-66.076,5.804-122.375-3.204-158.453-12v0.347
		c0,0-56.7,211.509,52.877,321.723c0,0,2.356,1.693,6.901,4.304C442.633,677.538,432.659,409.206,432.659,409.206z"/>
</g>
<path fill="#2B2321" d="M452.727,385.124c0,0-43.64-22.318-139.837,1.572v1.274c0,0,58.292,16.606,141.43-2.846"/>
<path fill="none" d="M510,547.984c0,0-0.43,56.975-36.102,105.049c-27.745,37.391-76.811,69.396-163.577,65.021L165,518.476L178,248
	c0,0,211-6,216,0s127,144.082,127,144.082L510,547.984z"/>
<path fill="#191A15" d="M509.347,590.367c0,0-16.235,151.686-119.541,149.909l-2.904-1.221L457.333,600l28-37L509.347,590.367z"/>
</svg>
