<?xml version="1.0" encoding="utf-8"?>
<!-- Generator: Adobe Illustrator 16.0.0, SVG Export Plug-In . SVG Version: 6.00 Build 0)  -->
<!DOCTYPE svg PUBLIC "-//W3C//DTD SVG 1.1//EN" "http://www.w3.org/Graphics/SVG/1.1/DTD/svg11.dtd">
<svg version="1.1" id="레이어_1" xmlns="http://www.w3.org/2000/svg" xmlns:xlink="http://www.w3.org/1999/xlink" x="0px"
	 y="0px" width="1133.86px" height="1133.86px" viewBox="0 0 1133.86 1133.86" enable-background="new 0 0 1133.86 1133.86"
	 xml:space="preserve">
<g>
	<path fill="#191A15" d="M433.118,404.082c20.204-1.774,41.309-4.917,63.046-9.893c-1.711-5.792-4.1-10.176-7.442-11.168
		c-13.379-3.97-64.345-29.453-158.632-13.526c0,0-68.804,12.104-55.425,20.386v2.201
		C310.743,400.878,367.042,409.886,433.118,404.082"/>
	<path fill="#191A15" d="M1095.854,409.63c-7.008-28.668-19.113-28.031-26.758-25.483s-15.927,8.919-15.927,8.919
		s-114.673-17.837-201.315,15.29c-86.642,33.128-125.504,56.063-163.728,87.917c-38.225,31.854-28.032,22.297-124.23,80.908
		c0,0-19.75,14.016-43.958,14.016c-24.208,0-14.016-10.83-14.016-14.016c0-3.185-4.459-161.18-5.097-146.527
		c-0.478,10.992,0.478-19.078-4.662-36.465c-21.737,4.977-42.842,8.119-63.046,9.893l-0.459,1.856v3.268
		c0,0,9.974,268.332-98.216,309.25c28.75,16.511,145.739,69.982,317.37-32.335c0,0,49.692-40.773,79.635-75.176
		s135.696-143.978,184.115-157.994c48.417-14.015,82.819-32.491,151.623-25.483C1067.186,427.468,1102.862,438.299,1095.854,409.63z
		"/>
	<path fill="#191A15" d="M432.659,409.206v-3.268l0.459-1.856c-66.076,5.804-122.375-3.204-158.453-12v0.347
		c0,0-56.7,211.509,52.877,321.723c0,0,2.356,1.693,6.901,4.304C442.633,677.538,432.659,409.206,432.659,409.206z"/>
</g>
<path fill="#4B241D" d="M334.443,716.063c0,0-115.841-71.99-59.778-323.634c0,0,133.148,22.559,157.994,13.509
	C432.659,405.938,447.098,667.646,334.443,716.063z"/>
<path fill="#7B4E37" d="M301.833,397.855c0,0-46.705,222.426,19.55,253.854c66.256,31.428,33.128-245.771,33.128-245.771
	l1.699-8.083l-50.011-4.79L301.833,397.855z"/>
<path fill="#6A5C61" d="M772.646,503.28l1.7-1.486c0,0,34.009-56.687,143.554-73.263c109.544-16.577,109.544-16.577,109.544-16.577
	s-67.924-9.12-184.719,18.912l-96.41,60.333l18.9,20.151L772.646,503.28z"/>
<path fill="#D6B7A4" d="M331.578,405.938c0,0,18.686,228.511-8.495,211.021c-27.182-17.489-15.545-218.097-15.545-218.097
	l5.352-5.796l20.705,4.79L331.578,405.938z"/>
<path fill="#DACBCE" d="M761.502,496.637c0,0,92.903-111.429,310.357-76.389c0,0,14.018,2.123,12.318-1.274
	s-17.201-5.543-17.201-5.543l-113.188-4.224c0,0-91.953,0.424-132.3,23.359c-40.348,22.935-101.295,38.65-113.399,68.38
	s52.24,3.185,52.24,3.185L761.502,496.637z"/>
<path fill="#8F5D48" d="M517.51,591.153c0,0-65.738,70.759,10.711,70.759s138.245-52.877,138.245-52.877l81.546-77.087l11.467-8.318
	L726.4,482.583l-7.695-9.545C718.705,473.038,555.217,605.125,517.51,591.153z"/>
<path fill="#C5A28B" d="M727.779,484.292c0,0-172.168,124.381-195.099,120.283c-22.931-4.099-54.151,74.538,50.966,26.12
	c105.117-48.418,158.089-122.281,163.297-122.618C752.152,507.74,727.779,484.292,727.779,484.292z"/>
<path fill="#A87A55" d="M550.69,599.21c4.377-2.109,64.765-5.968,74.662-43.941"/>
<path fill="#E8C899" d="M743.113,473.135c-4.75,3.095-10.24,7.37-15.334,11.158l20.305,24.972
	c4.586-2.998,10.284-6.818,15.178-10.379L743.113,473.135z"/>
<polyline fill="#AD8151" points="718.705,473.038 727.545,484.292 743.113,473.135 736.051,461.869 "/>
<g>
	<polygon fill="#654938" points="797.355,542.465 784.416,525.928 770.175,538.065 783.369,555.269 	"/>
	<path fill="#7E4630" d="M763.262,498.885c-4.894,3.561-10.592,7.381-15.178,10.379l22.091,28.801l14.241-12.138L763.262,498.885z"
		/>
</g>
<g>
	<path fill="#AE8F7A" d="M433.118,404.082c20.204-1.774,41.309-4.917,63.046-9.893c-1.711-5.792-4.1-10.176-7.442-11.168
		c-13.379-3.97-64.345-29.453-158.632-13.526c0,0-68.804,12.104-55.425,20.386v2.201
		C310.743,400.878,367.042,409.886,433.118,404.082"/>
	<path fill="none" d="M496.164,394.189c-21.737,4.977-42.842,8.119-63.046,9.893l-0.459,1.856v3.268"/>
	<path fill="none" d="M432.659,409.206v-3.268l0.459-1.856c-66.076,5.804-122.375-3.204-158.453-12v0.347
		c0,0-56.7,211.509,52.877,321.723c0,0,2.356,1.693,6.901,4.304C442.633,677.538,432.659,409.206,432.659,409.206z"/>
</g>
<path fill="#2B2321" d="M452.727,385.124c0,0-43.64-22.318-139.837,1.572v1.274c0,0,58.292,16.606,141.43-2.846"/>
<path fill="#DACBCE" d="M1008.574,409.206l-37.905-7.54c0,0,64.235-14.949,80.271-1.592c16.036,13.356-40.136,9.132-40.136,9.132"/>
</svg>
